<svg width="254" height="274" viewBox="0 0 254 274" fill="none" xmlns="http://www.w3.org/2000/svg">
<g id="beans 1">
<g clip-path="url(#clip0)">
<g id="Group">
<path id="Vector" d="M106.466 181.877C135.625 199.116 173.238 189.454 190.477 160.295C207.717 131.137 198.054 93.5241 168.896 76.2846C139.738 59.0452 102.125 68.7073 84.8851 97.8657C67.6457 127.024 77.3079 164.637 106.466 181.877Z" fill="#D6C1C1"/>
<g id="Group_2">
<path id="Vector_2" d="M89.0069 98.7537C95.3457 102.501 103.522 100.401 107.27 94.0622C111.018 87.7234 108.917 79.5467 102.579 75.799C96.2398 72.0513 88.0631 74.1518 84.3154 80.4905C80.5676 86.8293 82.6681 95.006 89.0069 98.7537Z" fill="#A9BA5A"/>
<path id="Vector_3" d="M87.6498 101.049C80.0552 96.559 77.5297 86.7279 82.0199 79.1334C86.5101 71.5388 96.3412 69.0133 103.936 73.5035C111.53 77.9937 114.056 87.8248 109.566 95.4194C105.075 103.014 95.2443 105.539 87.6498 101.049ZM101.221 78.0945C96.1588 75.1012 89.6041 76.785 86.6109 81.8477C83.6176 86.9104 85.3014 93.465 90.3641 96.4583C95.4268 99.4515 101.981 97.7677 104.975 92.705C107.968 87.6424 106.284 81.0877 101.221 78.0945Z" fill="#4C241D"/>
</g>
<g id="Group_3">
<path id="Vector_4" d="M84.5668 119.363C90.9056 123.11 99.0823 121.01 102.83 114.671C106.578 108.332 104.477 100.156 98.1385 96.408C91.7997 92.6603 83.623 94.7607 79.8753 101.1C76.1276 107.438 78.2281 115.615 84.5668 119.363Z" fill="#77A052"/>
<path id="Vector_5" d="M83.2097 121.658C75.6151 117.168 73.0897 107.337 77.5798 99.7424C82.07 92.1478 91.9011 89.6223 99.4957 94.1125C107.09 98.6027 109.616 108.434 105.126 116.028C100.635 123.623 90.8043 126.148 83.2097 121.658ZM96.7814 98.7034C91.7187 95.7102 85.164 97.394 82.1708 102.457C79.1776 107.519 80.8614 114.074 85.924 117.067C90.9867 120.06 97.5414 118.377 100.535 113.314C103.528 108.251 101.844 101.697 96.7814 98.7034Z" fill="#4C241D"/>
</g>
<g id="Group_4">
<path id="Vector_6" d="M107.421 117.386C113.76 121.133 121.937 119.033 125.684 112.694C129.432 106.355 127.331 98.1785 120.993 94.4308C114.654 90.6831 106.477 92.7835 102.729 99.1223C98.9818 105.461 101.082 113.638 107.421 117.386Z" fill="#77A052"/>
<path id="Vector_7" d="M106.064 119.681C98.4693 115.191 95.9438 105.36 100.434 97.7651C104.924 90.1706 114.755 87.6451 122.35 92.1353C129.944 96.6255 132.47 106.457 127.98 114.051C123.49 121.646 113.658 124.171 106.064 119.681ZM119.636 96.7262C114.573 93.733 108.018 95.4168 105.025 100.479C102.032 105.542 103.716 112.097 108.778 115.09C113.841 118.083 120.396 116.399 123.389 111.337C126.382 106.274 124.698 99.7195 119.636 96.7262Z" fill="#4C241D"/>
</g>
<g id="Group_5">
<path id="Vector_8" d="M110.755 137.944C117.094 141.692 125.271 139.591 129.019 133.253C132.766 126.914 130.666 118.737 124.327 114.989C117.988 111.242 109.812 113.342 106.064 119.681C102.316 126.02 104.417 134.196 110.755 137.944Z" fill="#A9BA5A"/>
<path id="Vector_9" d="M109.398 140.24C101.804 135.75 99.2782 125.918 103.768 118.324C108.259 110.729 118.09 108.204 125.684 112.694C133.279 117.184 135.804 127.015 131.314 134.61C126.824 142.204 116.993 144.73 109.398 140.24ZM122.97 117.285C117.907 114.292 111.353 115.976 108.359 121.038C105.366 126.101 107.05 132.656 112.113 135.649C117.175 138.642 123.73 136.958 126.723 131.896C129.716 126.833 128.033 120.278 122.97 117.285Z" fill="#4C241D"/>
</g>
<g id="Group_6">
<path id="Vector_10" d="M141.233 112.593C147.572 116.341 155.749 114.241 159.496 107.902C163.244 101.563 161.144 93.3863 154.805 89.6386C148.466 85.8909 140.289 87.9914 136.542 94.3302C132.794 100.669 134.894 108.846 141.233 112.593Z" fill="#77A052"/>
<path id="Vector_11" d="M139.876 114.889C132.281 110.399 129.756 100.568 134.246 92.973C138.736 85.3784 148.567 82.853 156.162 87.3432C163.757 91.8333 166.282 101.664 161.792 109.259C157.302 116.854 147.471 119.379 139.876 114.889ZM153.448 91.9341C148.385 88.9409 141.83 90.6247 138.837 95.6873C135.844 100.75 137.528 107.305 142.59 110.298C147.653 113.291 154.208 111.607 157.201 106.545C160.194 101.482 158.51 94.9273 153.448 91.9341Z" fill="#4C241D"/>
</g>
<g id="Group_7">
<path id="Vector_12" d="M97.9208 133.454C104.26 137.202 112.436 135.101 116.184 128.762C119.932 122.424 117.831 114.247 111.493 110.499C105.154 106.751 96.977 108.852 93.2293 115.191C89.4816 121.529 91.5821 129.706 97.9208 133.454Z" fill="#77A052"/>
<path id="Vector_13" d="M96.5637 135.749C88.9691 131.259 86.4436 121.428 90.9338 113.833C95.424 106.239 105.255 103.713 112.85 108.204C120.444 112.694 122.97 122.525 118.48 130.119C113.989 137.714 104.158 140.24 96.5637 135.749ZM110.135 112.795C105.073 109.801 98.518 111.485 95.5248 116.548C92.5316 121.61 94.2153 128.165 99.278 131.158C104.341 134.152 110.895 132.468 113.889 127.405C116.882 122.342 115.198 115.788 110.135 112.795Z" fill="#4C241D"/>
</g>
<g id="Group_8">
<path id="Vector_14" d="M127.561 119.999C133.9 123.747 142.076 121.647 145.824 115.308C149.572 108.969 147.471 100.792 141.133 97.0445C134.794 93.2968 126.617 95.3973 122.869 101.736C119.122 108.075 121.222 116.252 127.561 119.999Z" fill="#77A052"/>
<path id="Vector_15" d="M126.204 122.295C118.609 117.805 116.084 107.973 120.574 100.379C125.064 92.7843 134.895 90.2588 142.49 94.749C150.084 99.2392 152.61 109.07 148.12 116.665C143.629 124.259 133.798 126.785 126.204 122.295ZM139.775 99.34C134.713 96.3467 128.158 98.0305 125.165 103.093C122.172 108.156 123.855 114.711 128.918 117.704C133.981 120.697 140.535 119.013 143.529 113.951C146.522 108.888 144.838 102.333 139.775 99.34Z" fill="#4C241D"/>
</g>
<g id="Group_9">
<path id="Vector_16" d="M65.7842 114.454C72.123 118.201 80.2997 116.101 84.0474 109.762C87.7951 103.423 85.6947 95.2465 79.3559 91.4988C73.0171 87.7511 64.8404 89.8515 61.0927 96.1903C57.345 102.529 59.4454 110.706 65.7842 114.454Z" fill="#A9BA5A"/>
<path id="Vector_17" d="M64.427 116.749C56.8324 112.259 54.307 102.428 58.7972 94.8331C63.2874 87.2385 73.1185 84.7131 80.713 89.2033C88.3076 93.6935 90.8331 103.525 86.3429 111.119C81.8527 118.714 72.0216 121.239 64.427 116.749ZM77.9987 93.7942C72.936 90.801 66.3814 92.4848 63.3881 97.5475C60.3949 102.61 62.0787 109.165 67.1414 112.158C72.204 115.151 78.7587 113.467 81.7519 108.405C84.7452 103.342 83.0614 96.7875 77.9987 93.7942Z" fill="#4C241D"/>
</g>
<g id="Group_10">
<path id="Vector_18" d="M111.392 94.9502C117.731 98.6979 125.907 96.5975 129.655 90.2587C133.403 83.9199 131.302 75.7432 124.964 71.9955C118.625 68.2477 110.448 70.3482 106.7 76.687C102.953 83.0258 105.053 91.2025 111.392 94.9502Z" fill="#A9BA5A"/>
<path id="Vector_19" d="M110.035 97.2457C102.44 92.7555 99.9147 82.9244 104.405 75.3298C108.895 67.7352 118.726 65.2098 126.321 69.7C133.915 74.1902 136.441 84.0212 131.951 91.6158C127.46 99.2104 117.629 101.736 110.035 97.2457ZM123.606 74.2909C118.544 71.2977 111.989 72.9815 108.996 78.0442C106.003 83.1068 107.686 89.6615 112.749 92.6547C117.812 95.648 124.366 93.9642 127.36 88.9015C130.353 83.8388 128.669 77.2842 123.606 74.2909Z" fill="#4C241D"/>
</g>
<g id="Group_11">
<path id="Vector_20" d="M140.496 140.039C146.835 143.786 155.011 141.686 158.759 135.347C162.507 129.008 160.406 120.831 154.068 117.084C147.729 113.336 139.552 115.437 135.804 121.775C132.057 128.114 134.157 136.291 140.496 140.039Z" fill="#A9BA5A"/>
<path id="Vector_21" d="M139.139 142.334C131.544 137.844 129.019 128.013 133.509 120.418C137.999 112.824 147.83 110.298 155.425 114.788C163.019 119.278 165.545 129.11 161.055 136.704C156.564 144.299 146.733 146.824 139.139 142.334ZM152.71 119.379C147.648 116.386 141.093 118.07 138.1 123.132C135.107 128.195 136.79 134.75 141.853 137.743C146.916 140.736 153.47 139.052 156.464 133.99C159.457 128.927 157.773 122.372 152.71 119.379Z" fill="#4C241D"/>
</g>
<g id="Group_12">
<path id="Vector_22" d="M144.35 170.198C150.689 173.946 158.865 171.845 162.613 165.506C166.361 159.168 164.26 150.991 157.922 147.243C151.583 143.495 143.406 145.596 139.658 151.935C135.911 158.274 138.011 166.45 144.35 170.198Z" fill="#77A052"/>
<path id="Vector_23" d="M142.993 172.493C135.398 168.003 132.873 158.172 137.363 150.578C141.853 142.983 151.684 140.458 159.279 144.948C166.873 149.438 169.399 159.269 164.908 166.864C160.418 174.458 150.587 176.984 142.993 172.493ZM156.564 149.539C151.502 146.545 144.947 148.229 141.954 153.292C138.961 158.355 140.644 164.909 145.707 167.902C150.77 170.896 157.324 169.212 160.318 164.149C163.311 159.087 161.627 152.532 156.564 149.539Z" fill="#4C241D"/>
</g>
<g id="Group_13">
<path id="Vector_24" d="M157.184 174.688C163.523 178.436 171.7 176.336 175.448 169.997C179.195 163.658 177.095 155.481 170.756 151.734C164.417 147.986 156.241 150.086 152.493 156.425C148.745 162.764 150.846 170.941 157.184 174.688Z" fill="#A9BA5A"/>
<path id="Vector_25" d="M155.827 176.984C148.233 172.494 145.707 162.663 150.197 155.068C154.688 147.473 164.519 144.948 172.113 149.438C179.708 153.928 182.233 163.759 177.743 171.354C173.253 178.949 163.422 181.474 155.827 176.984ZM169.399 154.029C164.336 151.036 157.782 152.72 154.788 157.782C151.795 162.845 153.479 169.4 158.542 172.393C163.604 175.386 170.159 173.702 173.152 168.64C176.145 163.577 174.462 157.022 169.399 154.029Z" fill="#4C241D"/>
</g>
<g id="Group_14">
<path id="Vector_26" d="M125.048 155.688C131.387 159.436 139.563 157.335 143.311 150.996C147.059 144.658 144.958 136.481 138.619 132.733C132.281 128.985 124.104 131.086 120.356 137.425C116.608 143.764 118.709 151.94 125.048 155.688Z" fill="#77A052"/>
<path id="Vector_27" d="M123.691 157.983C116.096 153.493 113.57 143.662 118.061 136.068C122.551 128.473 132.382 125.948 139.977 130.438C147.571 134.928 150.097 144.759 145.606 152.354C141.116 159.948 131.285 162.474 123.691 157.983ZM137.262 135.029C132.2 132.035 125.645 133.719 122.652 138.782C119.658 143.845 121.342 150.399 126.405 153.392C131.468 156.386 138.022 154.702 141.015 149.639C144.009 144.577 142.325 138.022 137.262 135.029Z" fill="#4C241D"/>
</g>
<g id="Group_15">
<path id="Vector_28" d="M76.4074 201.279C42.1778 181.042 30.8353 136.887 51.0731 102.658L52.4302 100.362L176.386 173.649L175.029 175.945C154.791 210.174 110.637 221.517 76.4074 201.279Z" fill="#373A5A"/>
<path id="Vector_29" d="M75.0502 203.575C39.6092 182.621 27.8236 136.742 48.7776 101.301L50.1347 99.0052C50.8842 97.7375 52.5197 97.3174 53.7874 98.0669L177.743 171.354C179.011 172.103 179.431 173.739 178.681 175.007L177.324 177.302C156.37 212.743 110.491 224.529 75.0502 203.575ZM53.3685 104.015C33.9115 136.924 44.8555 179.527 77.7645 198.984C110.674 218.441 153.276 207.497 172.733 174.588L53.3685 104.015Z" fill="#4C241D"/>
</g>
<path id="Vector_30" d="M123.255 232.075L75.0502 203.575C73.7825 202.825 73.3624 201.19 74.1119 199.922C74.8614 198.654 76.4969 198.234 77.7645 198.984L125.97 227.484C127.237 228.234 127.657 229.869 126.908 231.137C126.158 232.405 124.523 232.825 123.255 232.075Z" fill="#4C241D"/>
<g id="Group_16">
<path id="Vector_31" d="M60.4406 171.433C63.5171 176.265 67.2726 180.725 71.6657 184.657L60.4406 171.433Z" fill="white"/>
<path id="Vector_32" d="M70.31 186.954C70.1619 186.866 70.0195 186.763 69.8864 186.645C65.3753 182.606 61.4401 177.969 58.1916 172.866C57.3998 171.624 57.7663 169.975 59.0083 169.185C60.2502 168.394 61.9002 168.76 62.6898 170.001C65.6766 174.694 69.2951 178.956 73.4438 182.67C74.5414 183.653 74.6341 185.338 73.653 186.436C72.7885 187.4 71.3825 187.588 70.31 186.954Z" fill="#4C241D"/>
</g>
<g id="Group_17">
<path id="Vector_33" d="M50.6559 142.69C51.3243 150.12 53.2845 157.392 56.4453 164.156L50.6559 142.69Z" fill="white"/>
<path id="Vector_34" d="M55.0861 166.45C54.6403 166.186 54.2668 165.79 54.0291 165.285C50.7274 158.218 48.6987 150.696 47.9999 142.929C47.8674 141.462 48.9498 140.166 50.4161 140.034C51.8869 139.898 53.1788 140.982 53.3106 142.45C53.9554 149.6 55.8219 156.523 58.8615 163.026C59.4848 164.361 58.9086 165.947 57.5744 166.572C56.7456 166.959 55.819 166.883 55.0861 166.45Z" fill="#4C241D"/>
</g>
<g id="Group_18">
<path id="Vector_35" d="M204.06 122.36C199.63 119.741 198.157 114.005 200.776 109.575C203.395 105.146 209.13 103.672 213.56 106.291C217.99 108.91 219.463 114.646 216.844 119.076C214.225 123.505 208.49 124.979 204.06 122.36ZM210.846 110.882C208.947 109.76 206.49 110.391 205.367 112.29C204.244 114.189 204.875 116.646 206.774 117.769C208.673 118.892 211.131 118.26 212.253 116.361C213.376 114.462 212.745 112.005 210.846 110.882Z" fill="#4C241D"/>
<path id="Vector_36" d="M184.871 131.668C186.226 132.469 187.974 132.02 188.776 130.665C189.577 129.31 189.128 127.562 187.772 126.76C186.417 125.959 184.669 126.408 183.868 127.763C183.067 129.119 183.516 130.867 184.871 131.668Z" fill="#4C241D"/>
<path id="Vector_37" d="M94.7273 53.5889C96.0825 54.3902 97.8307 53.9411 98.632 52.5859C99.4332 51.2306 98.9841 49.4825 97.6289 48.6812C96.2737 47.8799 94.5255 48.329 93.7242 49.6842C92.923 51.0395 93.3721 52.7877 94.7273 53.5889Z" fill="#4C241D"/>
</g>
</g>
</g>
</g>
<defs>
<clipPath id="clip0">
<rect x="81.7875" width="200" height="200" transform="rotate(30.5931 81.7875 0)" fill="white"/>
</clipPath>
</defs>
</svg>
