<svg width="201" height="201" viewBox="0 0 201 201" fill="none" xmlns="http://www.w3.org/2000/svg">
<g id="beans 1">
<g id="Group">
<path id="Vector" d="M114.781 144.974C148.655 144.974 176.115 117.514 176.115 83.6407C176.115 49.7673 148.655 22.3074 114.781 22.3074C80.908 22.3074 53.4481 49.7673 53.4481 83.6407C53.4481 117.514 80.908 144.974 114.781 144.974Z" fill="#D6C1C1"/>
<g id="Group_2">
<path id="Vector_2" d="M57.4481 82.3074C64.8119 82.3074 70.7814 76.3379 70.7814 68.9741C70.7814 61.6103 64.8119 55.6408 57.4481 55.6408C50.0843 55.6408 44.1147 61.6103 44.1147 68.9741C44.1147 76.3379 50.0843 82.3074 57.4481 82.3074Z" fill="#A9BA5A"/>
<path id="Vector_3" d="M57.4481 84.9741C48.6254 84.9741 41.4481 77.7968 41.4481 68.9741C41.4481 60.1514 48.6254 52.9741 57.4481 52.9741C66.2708 52.9741 73.4481 60.1514 73.4481 68.9741C73.4481 77.7968 66.2708 84.9741 57.4481 84.9741ZM57.4481 58.3074C51.5668 58.3074 46.7814 63.0928 46.7814 68.9741C46.7814 74.8554 51.5668 79.6408 57.4481 79.6408C63.3294 79.6408 68.1148 74.8554 68.1148 68.9741C68.1148 63.0928 63.3294 58.3074 57.4481 58.3074Z" fill="#4C241D"/>
</g>
<g id="Group_3">
<path id="Vector_4" d="M64.1147 102.307C71.4785 102.307 77.4481 96.3379 77.4481 88.9741C77.4481 81.6103 71.4785 75.6408 64.1147 75.6408C56.751 75.6408 50.7814 81.6103 50.7814 88.9741C50.7814 96.3379 56.751 102.307 64.1147 102.307Z" fill="#77A052"/>
<path id="Vector_5" d="M64.1147 104.974C55.2921 104.974 48.1147 97.7968 48.1147 88.9741C48.1147 80.1514 55.2921 72.9741 64.1147 72.9741C72.9374 72.9741 80.1147 80.1514 80.1147 88.9741C80.1147 97.7968 72.9374 104.974 64.1147 104.974ZM64.1147 78.3074C58.2334 78.3074 53.4481 83.0928 53.4481 88.9741C53.4481 94.8554 58.2334 99.6408 64.1147 99.6408C69.9961 99.6408 74.7814 94.8554 74.7814 88.9741C74.7814 83.0928 69.9961 78.3074 64.1147 78.3074Z" fill="#4C241D"/>
</g>
<g id="Group_4">
<path id="Vector_6" d="M82.7814 88.9741C90.1452 88.9741 96.1148 83.0045 96.1148 75.6408C96.1148 68.277 90.1452 62.3074 82.7814 62.3074C75.4176 62.3074 69.4481 68.277 69.4481 75.6408C69.4481 83.0045 75.4176 88.9741 82.7814 88.9741Z" fill="#77A052"/>
<path id="Vector_7" d="M82.7814 91.6407C73.9587 91.6407 66.7814 84.4634 66.7814 75.6408C66.7814 66.8181 73.9587 59.6408 82.7814 59.6408C91.6041 59.6408 98.7814 66.8181 98.7814 75.6408C98.7814 84.4634 91.6041 91.6407 82.7814 91.6407ZM82.7814 64.9741C76.9001 64.9741 72.1147 69.7594 72.1147 75.6408C72.1147 81.5221 76.9001 86.3074 82.7814 86.3074C88.6627 86.3074 93.4481 81.5221 93.4481 75.6408C93.4481 69.7594 88.6627 64.9741 82.7814 64.9741Z" fill="#4C241D"/>
</g>
<g id="Group_5">
<path id="Vector_8" d="M96.1148 104.974C103.479 104.974 109.448 99.0046 109.448 91.6408C109.448 84.277 103.479 78.3074 96.1148 78.3074C88.751 78.3074 82.7814 84.277 82.7814 91.6408C82.7814 99.0046 88.751 104.974 96.1148 104.974Z" fill="#A9BA5A"/>
<path id="Vector_9" d="M96.1147 107.641C87.2921 107.641 80.1147 100.463 80.1147 91.6408C80.1147 82.8181 87.2921 75.6408 96.1147 75.6408C104.937 75.6408 112.115 82.8181 112.115 91.6408C112.115 100.463 104.937 107.641 96.1147 107.641ZM96.1147 80.9741C90.2334 80.9741 85.4481 85.7594 85.4481 91.6408C85.4481 97.5221 90.2334 102.307 96.1147 102.307C101.996 102.307 106.781 97.5221 106.781 91.6408C106.781 85.7594 101.996 80.9741 96.1147 80.9741Z" fill="#4C241D"/>
</g>
<g id="Group_6">
<path id="Vector_10" d="M109.448 67.6408C116.812 67.6408 122.781 61.6712 122.781 54.3074C122.781 46.9436 116.812 40.9741 109.448 40.9741C102.084 40.9741 96.1148 46.9436 96.1148 54.3074C96.1148 61.6712 102.084 67.6408 109.448 67.6408Z" fill="#77A052"/>
<path id="Vector_11" d="M109.448 70.3074C100.625 70.3074 93.4481 63.1301 93.4481 54.3074C93.4481 45.4848 100.625 38.3074 109.448 38.3074C118.271 38.3074 125.448 45.4848 125.448 54.3074C125.448 63.1301 118.271 70.3074 109.448 70.3074ZM109.448 43.6408C103.567 43.6408 98.7814 48.4261 98.7814 54.3074C98.7814 60.1887 103.567 64.9741 109.448 64.9741C115.329 64.9741 120.115 60.1887 120.115 54.3074C120.115 48.4261 115.329 43.6408 109.448 43.6408Z" fill="#4C241D"/>
</g>
<g id="Group_7">
<path id="Vector_12" d="M82.7814 107.641C90.1452 107.641 96.1148 101.671 96.1148 94.3074C96.1148 86.9436 90.1452 80.9741 82.7814 80.9741C75.4176 80.9741 69.4481 86.9436 69.4481 94.3074C69.4481 101.671 75.4176 107.641 82.7814 107.641Z" fill="#77A052"/>
<path id="Vector_13" d="M82.7814 110.307C73.9587 110.307 66.7814 103.13 66.7814 94.3074C66.7814 85.4847 73.9587 78.3074 82.7814 78.3074C91.6041 78.3074 98.7814 85.4847 98.7814 94.3074C98.7814 103.13 91.6041 110.307 82.7814 110.307ZM82.7814 83.6407C76.9001 83.6407 72.1147 88.4261 72.1147 94.3074C72.1147 100.189 76.9001 104.974 82.7814 104.974C88.6627 104.974 93.4481 100.189 93.4481 94.3074C93.4481 88.4261 88.6627 83.6407 82.7814 83.6407Z" fill="#4C241D"/>
</g>
<g id="Group_8">
<path id="Vector_14" d="M101.448 80.9741C108.812 80.9741 114.781 75.0045 114.781 67.6408C114.781 60.277 108.812 54.3074 101.448 54.3074C94.0843 54.3074 88.1147 60.277 88.1147 67.6408C88.1147 75.0045 94.0843 80.9741 101.448 80.9741Z" fill="#77A052"/>
<path id="Vector_15" d="M101.448 83.6408C92.6254 83.6408 85.4481 76.4634 85.4481 67.6408C85.4481 58.8181 92.6254 51.6408 101.448 51.6408C110.271 51.6408 117.448 58.8181 117.448 67.6408C117.448 76.4634 110.271 83.6408 101.448 83.6408ZM101.448 56.9741C95.5667 56.9741 90.7814 61.7594 90.7814 67.6408C90.7814 73.5221 95.5667 78.3074 101.448 78.3074C107.329 78.3074 112.115 73.5221 112.115 67.6408C112.115 61.7594 107.329 56.9741 101.448 56.9741Z" fill="#4C241D"/>
</g>
<g id="Group_9">
<path id="Vector_16" d="M45.4481 107.641C52.8119 107.641 58.7814 101.671 58.7814 94.3074C58.7814 86.9436 52.8119 80.9741 45.4481 80.9741C38.0843 80.9741 32.1147 86.9436 32.1147 94.3074C32.1147 101.671 38.0843 107.641 45.4481 107.641Z" fill="#A9BA5A"/>
<path id="Vector_17" d="M45.4481 110.307C36.6254 110.307 29.4481 103.13 29.4481 94.3074C29.4481 85.4848 36.6254 78.3074 45.4481 78.3074C54.2707 78.3074 61.4481 85.4848 61.4481 94.3074C61.4481 103.13 54.2707 110.307 45.4481 110.307ZM45.4481 83.6408C39.5667 83.6408 34.7814 88.4261 34.7814 94.3074C34.7814 100.189 39.5667 104.974 45.4481 104.974C51.3294 104.974 56.1147 100.189 56.1147 94.3074C56.1147 88.4261 51.3294 83.6408 45.4481 83.6408Z" fill="#4C241D"/>
</g>
<g id="Group_10">
<path id="Vector_18" d="M74.7814 67.6408C82.1452 67.6408 88.1148 61.6712 88.1148 54.3074C88.1148 46.9436 82.1452 40.9741 74.7814 40.9741C67.4176 40.9741 61.4481 46.9436 61.4481 54.3074C61.4481 61.6712 67.4176 67.6408 74.7814 67.6408Z" fill="#A9BA5A"/>
<path id="Vector_19" d="M74.7814 70.3074C65.9587 70.3074 58.7814 63.1301 58.7814 54.3074C58.7814 45.4848 65.9587 38.3074 74.7814 38.3074C83.6041 38.3074 90.7814 45.4848 90.7814 54.3074C90.7814 63.1301 83.6041 70.3074 74.7814 70.3074ZM74.7814 43.6408C68.9001 43.6408 64.1147 48.4261 64.1147 54.3074C64.1147 60.1888 68.9001 64.9741 74.7814 64.9741C80.6627 64.9741 85.4481 60.1888 85.4481 54.3074C85.4481 48.4261 80.6627 43.6408 74.7814 43.6408Z" fill="#4C241D"/>
</g>
<g id="Group_11">
<path id="Vector_20" d="M122.781 91.6408C130.145 91.6408 136.115 85.6712 136.115 78.3074C136.115 70.9436 130.145 64.9741 122.781 64.9741C115.418 64.9741 109.448 70.9436 109.448 78.3074C109.448 85.6712 115.418 91.6408 122.781 91.6408Z" fill="#A9BA5A"/>
<path id="Vector_21" d="M122.781 94.3074C113.959 94.3074 106.781 87.1301 106.781 78.3074C106.781 69.4848 113.959 62.3074 122.781 62.3074C131.604 62.3074 138.781 69.4848 138.781 78.3074C138.781 87.1301 131.604 94.3074 122.781 94.3074ZM122.781 67.6408C116.9 67.6408 112.115 72.4261 112.115 78.3074C112.115 84.1888 116.9 88.9741 122.781 88.9741C128.663 88.9741 133.448 84.1888 133.448 78.3074C133.448 72.4261 128.663 67.6408 122.781 67.6408Z" fill="#4C241D"/>
</g>
<g id="Group_12">
<path id="Vector_22" d="M141.448 115.641C148.812 115.641 154.781 109.671 154.781 102.307C154.781 94.9436 148.812 88.9741 141.448 88.9741C134.084 88.9741 128.115 94.9436 128.115 102.307C128.115 109.671 134.084 115.641 141.448 115.641Z" fill="#77A052"/>
<path id="Vector_23" d="M141.448 118.307C132.625 118.307 125.448 111.13 125.448 102.307C125.448 93.4848 132.625 86.3074 141.448 86.3074C150.271 86.3074 157.448 93.4848 157.448 102.307C157.448 111.13 150.271 118.307 141.448 118.307ZM141.448 91.6408C135.567 91.6408 130.781 96.4261 130.781 102.307C130.781 108.189 135.567 112.974 141.448 112.974C147.329 112.974 152.115 108.189 152.115 102.307C152.115 96.4261 147.329 91.6408 141.448 91.6408Z" fill="#4C241D"/>
</g>
<g id="Group_13">
<path id="Vector_24" d="M154.781 112.974C162.145 112.974 168.115 107.005 168.115 99.6408C168.115 92.277 162.145 86.3074 154.781 86.3074C147.418 86.3074 141.448 92.277 141.448 99.6408C141.448 107.005 147.418 112.974 154.781 112.974Z" fill="#A9BA5A"/>
<path id="Vector_25" d="M154.781 115.641C145.959 115.641 138.781 108.463 138.781 99.6408C138.781 90.8181 145.959 83.6408 154.781 83.6408C163.604 83.6408 170.781 90.8181 170.781 99.6408C170.781 108.463 163.604 115.641 154.781 115.641ZM154.781 88.9741C148.9 88.9741 144.115 93.7594 144.115 99.6408C144.115 105.522 148.9 110.307 154.781 110.307C160.663 110.307 165.448 105.522 165.448 99.6408C165.448 93.7594 160.663 88.9741 154.781 88.9741Z" fill="#4C241D"/>
</g>
<g id="Group_14">
<path id="Vector_26" d="M117.448 112.974C124.812 112.974 130.781 107.005 130.781 99.6408C130.781 92.277 124.812 86.3074 117.448 86.3074C110.084 86.3074 104.115 92.277 104.115 99.6408C104.115 107.005 110.084 112.974 117.448 112.974Z" fill="#77A052"/>
<path id="Vector_27" d="M117.448 115.641C108.625 115.641 101.448 108.463 101.448 99.6408C101.448 90.8181 108.625 83.6408 117.448 83.6408C126.271 83.6408 133.448 90.8181 133.448 99.6408C133.448 108.463 126.271 115.641 117.448 115.641ZM117.448 88.9741C111.567 88.9741 106.781 93.7594 106.781 99.6408C106.781 105.522 111.567 110.307 117.448 110.307C123.329 110.307 128.115 105.522 128.115 99.6408C128.115 93.7594 123.329 88.9741 117.448 88.9741Z" fill="#4C241D"/>
</g>
<g id="Group_15">
<path id="Vector_28" d="M98.7814 176.974C59.0168 176.974 26.7814 144.739 26.7814 104.974V102.307L170.781 102.307V104.974C170.781 144.739 138.546 176.974 98.7814 176.974Z" fill="#373A5A"/>
<path id="Vector_29" d="M98.7814 179.641C57.6094 179.641 24.1147 146.146 24.1147 104.974V102.307C24.1147 100.835 25.3087 99.6407 26.7814 99.6407L170.781 99.6407C172.254 99.6407 173.448 100.835 173.448 102.307V104.974C173.448 146.146 139.953 179.641 98.7814 179.641ZM29.4481 104.974C29.4481 143.205 60.5507 174.307 98.7814 174.307C137.012 174.307 168.115 143.205 168.115 104.974L29.4481 104.974Z" fill="#4C241D"/>
</g>
<path id="Vector_30" d="M154.781 179.641H98.7814C97.3087 179.641 96.1147 178.447 96.1147 176.974C96.1147 175.501 97.3087 174.307 98.7814 174.307H154.781C156.254 174.307 157.448 175.501 157.448 176.974C157.448 178.447 156.254 179.641 154.781 179.641Z" fill="#4C241D"/>
<g id="Group_16">
<path id="Vector_31" d="M69.8474 159.409C74.9548 162.002 80.4574 163.93 86.2401 165.079L69.8474 159.409Z" fill="white"/>
<path id="Vector_32" d="M86.2421 167.746C86.0701 167.746 85.8948 167.729 85.7201 167.695C79.7814 166.515 74.0341 164.526 68.6408 161.787C67.3267 161.12 66.8034 159.515 67.4701 158.202C68.1368 156.889 69.7434 156.365 71.0548 157.031C76.0141 159.551 81.2981 161.378 86.7594 162.463C88.2048 162.751 89.1421 164.155 88.8561 165.599C88.6028 166.869 87.4881 167.746 86.2421 167.746Z" fill="#4C241D"/>
</g>
<g id="Group_17">
<path id="Vector_33" d="M46.7961 139.646C51.1528 145.701 56.5414 150.964 62.7048 155.178L46.7961 139.646Z" fill="white"/>
<path id="Vector_34" d="M62.7021 157.844C62.1841 157.844 61.6608 157.693 61.1994 157.379C54.7608 152.977 49.1861 147.534 44.6314 141.203C43.7708 140.008 44.0428 138.341 45.2381 137.482C46.4348 136.616 48.0987 136.892 48.9594 138.089C53.1534 143.915 58.2834 148.925 64.2094 152.975C65.4254 153.807 65.7368 155.466 64.9061 156.683C64.3894 157.437 63.5534 157.844 62.7021 157.844Z" fill="#4C241D"/>
</g>
<g id="Group_18">
<path id="Vector_35" d="M168.5 44.0727C163.354 44.0727 159.167 39.8854 159.167 34.7394C159.167 29.5934 163.354 25.4061 168.5 25.4061C173.646 25.4061 177.833 29.5934 177.833 34.7394C177.833 39.8854 173.646 44.0727 168.5 44.0727ZM168.5 30.7394C166.294 30.7394 164.5 32.5334 164.5 34.7394C164.5 36.9454 166.294 38.7394 168.5 38.7394C170.706 38.7394 172.5 36.9454 172.5 34.7394C172.5 32.5334 170.706 30.7394 168.5 30.7394Z" fill="#4C241D"/>
<path id="Vector_36" d="M156.719 61.8514C158.294 61.8514 159.57 60.5751 159.57 59.0007C159.57 57.4264 158.294 56.1501 156.719 56.1501C155.145 56.1501 153.869 57.4264 153.869 59.0007C153.869 60.5751 155.145 61.8514 156.719 61.8514Z" fill="#4C241D"/>
<path id="Vector_37" d="M39.3861 40.5181C40.9605 40.5181 42.2368 39.2418 42.2368 37.6674C42.2368 36.093 40.9605 34.8167 39.3861 34.8167C37.8117 34.8167 36.5354 36.093 36.5354 37.6674C36.5354 39.2418 37.8117 40.5181 39.3861 40.5181Z" fill="#4C241D"/>
</g>
</g>
</g>
</svg>
