<svg width="186" height="274" viewBox="0 0 186 274" fill="none" xmlns="http://www.w3.org/2000/svg">
<g id="beans 1">
<g clip-path="url(#clip0)">
<g id="Group">
<path id="Vector" d="M38.4663 181.877C67.6247 199.116 105.238 189.454 122.477 160.295C139.717 131.137 130.054 93.5241 100.896 76.2846C71.7375 59.0452 34.1246 68.7073 16.8851 97.8657C-0.354336 127.024 9.30786 164.637 38.4663 181.877Z" fill="#D6C1C1"/>
<g id="Group_2">
<path id="Vector_2" d="M21.0069 98.7537C27.3457 102.501 35.5224 100.401 39.2701 94.0622C43.0178 87.7234 40.9174 79.5467 34.5786 75.799C28.2398 72.0513 20.0631 74.1518 16.3154 80.4905C12.5676 86.8293 14.6681 95.006 21.0069 98.7537Z" fill="#A9BA5A"/>
<path id="Vector_3" d="M19.6498 101.049C12.0552 96.559 9.52972 86.7279 14.0199 79.1334C18.5101 71.5388 28.3412 69.0133 35.9358 73.5035C43.5303 77.9937 46.0558 87.8248 41.5656 95.4194C37.0754 103.014 27.2443 105.539 19.6498 101.049ZM33.2214 78.0945C28.1588 75.1012 21.6041 76.785 18.6109 81.8477C15.6176 86.9104 17.3014 93.465 22.3641 96.4583C27.4268 99.4515 33.9814 97.7677 36.9747 92.705C39.9679 87.6424 38.2841 81.0877 33.2214 78.0945Z" fill="#4C241D"/>
</g>
<g id="Group_3">
<path id="Vector_4" d="M16.5668 119.363C22.9056 123.11 31.0823 121.01 34.8301 114.671C38.5778 108.332 36.4773 100.156 30.1385 96.408C23.7997 92.6603 15.623 94.7607 11.8753 101.1C8.12759 107.438 10.2281 115.615 16.5668 119.363Z" fill="#77A052"/>
<path id="Vector_5" d="M15.2097 121.658C7.61511 117.168 5.08965 107.337 9.57984 99.7424C14.07 92.1478 23.9011 89.6223 31.4957 94.1125C39.0903 98.6027 41.6157 108.434 37.1255 116.028C32.6354 123.623 22.8043 126.148 15.2097 121.658ZM28.7814 98.7034C23.7187 95.7102 17.164 97.394 14.1708 102.457C11.1776 107.519 12.8614 114.074 17.924 117.067C22.9867 120.06 29.5414 118.377 32.5346 113.314C35.5278 108.251 33.844 101.697 28.7814 98.7034Z" fill="#4C241D"/>
</g>
<g id="Group_4">
<path id="Vector_6" d="M39.421 117.386C45.7598 121.133 53.9365 119.033 57.6843 112.694C61.432 106.355 59.3315 98.1785 52.9927 94.4308C46.6539 90.6831 38.4772 92.7835 34.7295 99.1223C30.9818 105.461 33.0823 113.638 39.421 117.386Z" fill="#77A052"/>
<path id="Vector_7" d="M38.0638 119.681C30.4693 115.191 27.9438 105.36 32.434 97.7651C36.9242 90.1706 46.7553 87.6451 54.3498 92.1353C61.9444 96.6255 64.4699 106.457 59.9797 114.051C55.4895 121.646 45.6584 124.171 38.0638 119.681ZM51.6355 96.7262C46.5728 93.733 40.0182 95.4168 37.0249 100.479C34.0317 105.542 35.7155 112.097 40.7782 115.09C45.8408 118.083 52.3955 116.399 55.3887 111.337C58.382 106.274 56.6982 99.7195 51.6355 96.7262Z" fill="#4C241D"/>
</g>
<g id="Group_5">
<path id="Vector_8" d="M42.7554 137.944C49.0942 141.692 57.2709 139.591 61.0186 133.253C64.7663 126.914 62.6659 118.737 56.3271 114.989C49.9883 111.242 41.8116 113.342 38.0639 119.681C34.3162 126.02 36.4166 134.196 42.7554 137.944Z" fill="#A9BA5A"/>
<path id="Vector_9" d="M41.3982 140.24C33.8037 135.75 31.2782 125.918 35.7684 118.324C40.2586 110.729 50.0897 108.204 57.6842 112.694C65.2788 117.184 67.8043 127.015 63.3141 134.61C58.8239 142.204 48.9928 144.73 41.3982 140.24ZM54.9699 117.285C49.9072 114.292 43.3526 115.976 40.3593 121.038C37.3661 126.101 39.0499 132.656 44.1126 135.649C49.1752 138.642 55.7299 136.958 58.7231 131.896C61.7164 126.833 60.0326 120.278 54.9699 117.285Z" fill="#4C241D"/>
</g>
<g id="Group_6">
<path id="Vector_10" d="M73.2331 112.593C79.5719 116.341 87.7486 114.241 91.4963 107.902C95.2441 101.563 93.1436 93.3863 86.8048 89.6386C80.466 85.8909 72.2893 87.9914 68.5416 94.3302C64.7939 100.669 66.8943 108.846 73.2331 112.593Z" fill="#77A052"/>
<path id="Vector_11" d="M71.876 114.889C64.2814 110.399 61.7559 100.568 66.2461 92.973C70.7363 85.3784 80.5674 82.853 88.162 87.3432C95.7565 91.8333 98.282 101.664 93.7918 109.259C89.3016 116.854 79.4705 119.379 71.876 114.889ZM85.4476 91.9341C80.3849 88.9409 73.8303 90.6247 70.8371 95.6873C67.8438 100.75 69.5276 107.305 74.5903 110.298C79.653 113.291 86.2076 111.607 89.2009 106.545C92.1941 101.482 90.5103 94.9273 85.4476 91.9341Z" fill="#4C241D"/>
</g>
<g id="Group_7">
<path id="Vector_12" d="M29.9208 133.454C36.2596 137.202 44.4364 135.101 48.1841 128.762C51.9318 122.424 49.8313 114.247 43.4925 110.499C37.1537 106.751 28.977 108.852 25.2293 115.191C21.4816 121.529 23.5821 129.706 29.9208 133.454Z" fill="#77A052"/>
<path id="Vector_13" d="M28.5637 135.749C20.9691 131.259 18.4436 121.428 22.9338 113.833C27.424 106.239 37.2551 103.713 44.8497 108.204C52.4443 112.694 54.9697 122.525 50.4795 130.119C45.9893 137.714 36.1583 140.24 28.5637 135.749ZM42.1354 112.795C37.0727 109.801 30.518 111.485 27.5248 116.548C24.5316 121.61 26.2153 128.165 31.278 131.158C36.3407 134.152 42.8953 132.468 45.8886 127.405C48.8818 122.342 47.198 115.788 42.1354 112.795Z" fill="#4C241D"/>
</g>
<g id="Group_8">
<path id="Vector_14" d="M59.5609 119.999C65.8997 123.747 74.0764 121.647 77.8241 115.308C81.5718 108.969 79.4713 100.792 73.1325 97.0445C66.7938 93.2968 58.617 95.3973 54.8693 101.736C51.1216 108.075 53.2221 116.252 59.5609 119.999Z" fill="#77A052"/>
<path id="Vector_15" d="M58.2037 122.295C50.6091 117.805 48.0836 107.973 52.5738 100.379C57.064 92.7843 66.8951 90.2588 74.4897 94.749C82.0843 99.2392 84.6097 109.07 80.1195 116.665C75.6294 124.259 65.7983 126.785 58.2037 122.295ZM71.7754 99.34C66.7127 96.3468 60.158 98.0306 57.1648 103.093C54.1715 108.156 55.8553 114.711 60.918 117.704C65.9807 120.697 72.5354 119.013 75.5286 113.951C78.5218 108.888 76.838 102.333 71.7754 99.34Z" fill="#4C241D"/>
</g>
<g id="Group_9">
<path id="Vector_16" d="M-2.21577 114.454C4.12301 118.201 12.2997 116.101 16.0474 109.762C19.7951 103.423 17.6947 95.2465 11.3559 91.4988C5.01711 87.7511 -3.15961 89.8515 -6.90732 96.1903C-10.655 102.529 -8.55456 110.706 -2.21577 114.454Z" fill="#A9BA5A"/>
<path id="Vector_17" d="M-3.57297 116.749C-11.1676 112.259 -13.693 102.428 -9.20282 94.8331C-4.71263 87.2385 5.11846 84.7131 12.713 89.2033C20.3076 93.6935 22.8331 103.525 18.3429 111.119C13.8527 118.714 4.02161 121.239 -3.57297 116.749ZM9.9987 93.7942C4.93603 90.801 -1.61863 92.4848 -4.61187 97.5475C-7.6051 102.61 -5.92131 109.165 -0.858635 112.158C4.20404 115.151 10.7587 113.467 13.7519 108.405C16.7452 103.342 15.0614 96.7875 9.9987 93.7942Z" fill="#4C241D"/>
</g>
<g id="Group_10">
<path id="Vector_18" d="M43.392 94.9502C49.7307 98.6979 57.9075 96.5975 61.6552 90.2587C65.4029 83.9199 63.3024 75.7432 56.9636 71.9955C50.6248 68.2477 42.4481 70.3482 38.7004 76.687C34.9527 83.0258 37.0532 91.2025 43.392 94.9502Z" fill="#A9BA5A"/>
<path id="Vector_19" d="M42.0348 97.2457C34.4402 92.7555 31.9147 82.9244 36.4049 75.3298C40.8951 67.7352 50.7262 65.2098 58.3208 69.7C65.9153 74.1902 68.4408 84.0212 63.9506 91.6158C59.4604 99.2104 49.6293 101.736 42.0348 97.2457ZM55.6064 74.2909C50.5438 71.2977 43.9891 72.9815 40.9959 78.0442C38.0026 83.1068 39.6864 89.6615 44.7491 92.6547C49.8118 95.648 56.3664 93.9642 59.3597 88.9015C62.3529 83.8388 60.6691 77.2842 55.6064 74.2909Z" fill="#4C241D"/>
</g>
<g id="Group_11">
<path id="Vector_20" d="M72.496 140.039C78.8348 143.786 87.0115 141.686 90.7592 135.347C94.5069 129.008 92.4064 120.831 86.0677 117.084C79.7289 113.336 71.5521 115.437 67.8044 121.775C64.0567 128.114 66.1572 136.291 72.496 140.039Z" fill="#A9BA5A"/>
<path id="Vector_21" d="M71.1388 142.334C63.5442 137.844 61.0188 128.013 65.509 120.418C69.9992 112.824 79.8302 110.298 87.4248 114.788C95.0194 119.278 97.5448 129.11 93.0547 136.704C88.5645 144.299 78.7334 146.824 71.1388 142.334ZM84.7105 119.379C79.6478 116.386 73.0932 118.07 70.0999 123.132C67.1067 128.195 68.7905 134.75 73.8532 137.743C78.9158 140.736 85.4705 139.052 88.4637 133.99C91.4569 128.927 89.7732 122.372 84.7105 119.379Z" fill="#4C241D"/>
</g>
<g id="Group_12">
<path id="Vector_22" d="M76.3498 170.198C82.6886 173.946 90.8653 171.845 94.613 165.506C98.3608 159.168 96.2603 150.991 89.9215 147.243C83.5827 143.495 75.406 145.596 71.6583 151.935C67.9105 158.274 70.011 166.45 76.3498 170.198Z" fill="#77A052"/>
<path id="Vector_23" d="M74.9926 172.493C67.3981 168.003 64.8726 158.172 69.3628 150.578C73.853 142.983 83.6841 140.458 91.2786 144.948C98.8732 149.438 101.399 159.269 96.9085 166.864C92.4183 174.458 82.5872 176.984 74.9926 172.493ZM88.5643 149.539C83.5016 146.545 76.947 148.229 73.9537 153.292C70.9605 158.355 72.6443 164.909 77.707 167.902C82.7697 170.896 89.3243 169.212 92.3175 164.149C95.3108 159.087 93.627 152.532 88.5643 149.539Z" fill="#4C241D"/>
</g>
<g id="Group_13">
<path id="Vector_24" d="M89.1844 174.688C95.5231 178.436 103.7 176.336 107.448 169.997C111.195 163.658 109.095 155.481 102.756 151.734C96.4173 147.986 88.2405 150.086 84.4928 156.425C80.7451 162.764 82.8456 170.941 89.1844 174.688Z" fill="#A9BA5A"/>
<path id="Vector_25" d="M87.8272 176.984C80.2326 172.494 77.7072 162.663 82.1974 155.068C86.6875 147.473 96.5186 144.948 104.113 149.438C111.708 153.928 114.233 163.759 109.743 171.354C105.253 178.949 95.4218 181.474 87.8272 176.984ZM101.399 154.029C96.3362 151.036 89.7815 152.72 86.7883 157.782C83.7951 162.845 85.4789 169.4 90.5415 172.393C95.6042 175.386 102.159 173.702 105.152 168.64C108.145 163.577 106.462 157.022 101.399 154.029Z" fill="#4C241D"/>
</g>
<g id="Group_14">
<path id="Vector_26" d="M57.0477 155.688C63.3865 159.436 71.5632 157.335 75.3109 150.996C79.0587 144.658 76.9582 136.481 70.6194 132.733C64.2806 128.985 56.1039 131.086 52.3562 137.425C48.6085 143.764 50.7089 151.94 57.0477 155.688Z" fill="#77A052"/>
<path id="Vector_27" d="M55.6905 157.983C48.096 153.493 45.5705 143.662 50.0607 136.068C54.5509 128.473 64.382 125.948 71.9765 130.438C79.5711 134.928 82.0966 144.759 77.6064 152.354C73.1162 159.948 63.2851 162.474 55.6905 157.983ZM69.2622 135.029C64.1995 132.035 57.6449 133.719 54.6516 138.782C51.6584 143.845 53.3422 150.399 58.4049 153.392C63.4676 156.386 70.0222 154.702 73.0155 149.639C76.0087 144.577 74.3249 138.022 69.2622 135.029Z" fill="#4C241D"/>
</g>
<g id="Group_15">
<path id="Vector_28" d="M8.40741 201.279C-25.8222 181.042 -37.1647 136.887 -16.9269 102.658L-15.5698 100.362L108.386 173.649L107.029 175.945C86.791 210.174 42.637 221.517 8.40741 201.279Z" fill="#373A5A"/>
<path id="Vector_29" d="M7.05021 203.575C-28.3908 182.621 -40.1764 136.742 -19.2224 101.301L-17.8653 99.0052C-17.1158 97.7375 -15.4803 97.3174 -14.2126 98.0669L109.743 171.354C111.011 172.103 111.431 173.739 110.681 175.007L109.324 177.302C88.3702 212.743 42.4912 224.529 7.05021 203.575ZM-14.6315 104.015C-34.0885 136.924 -23.1445 179.527 9.76455 198.984C42.6736 218.441 85.2762 207.497 104.733 174.588L-14.6315 104.015Z" fill="#4C241D"/>
</g>
<path id="Vector_30" d="M55.2552 232.075L7.05021 203.575C5.78253 202.825 5.3624 201.19 6.11189 199.922C6.86139 198.654 8.49685 198.234 9.76453 198.984L57.9695 227.484C59.2372 228.234 59.6573 229.869 58.9078 231.137C58.1583 232.405 56.5229 232.825 55.2552 232.075Z" fill="#4C241D"/>
<g id="Group_16">
<path id="Vector_31" d="M-7.55942 171.433C-4.48286 176.265 -0.727388 180.725 3.66574 184.657L-7.55942 171.433Z" fill="white"/>
<path id="Vector_32" d="M2.30996 186.954C2.16191 186.866 2.01946 186.763 1.88642 186.645C-2.62473 182.606 -6.55995 177.969 -9.8084 172.866C-10.6002 171.624 -10.2337 169.975 -8.99174 169.185C-7.7498 168.394 -6.09975 168.76 -5.31025 170.001C-2.32342 174.694 1.29507 178.956 5.44384 182.67C6.54141 183.653 6.63406 185.338 5.65297 186.436C4.78855 187.4 3.38253 187.588 2.30996 186.954Z" fill="#4C241D"/>
</g>
<g id="Group_17">
<path id="Vector_33" d="M-12.9139 166.45C-13.3597 166.186 -13.7332 165.79 -13.9709 165.285C-17.2726 158.218 -19.3013 150.696 -20.0001 142.929C-20.1326 141.462 -19.0502 140.166 -17.5839 140.034C-16.1131 139.898 -14.8212 140.982 -14.6894 142.45C-14.0446 149.6 -12.1781 156.523 -9.13849 163.026C-8.51519 164.361 -9.09135 165.947 -10.4256 166.572C-11.2544 166.959 -12.181 166.883 -12.9139 166.45Z" fill="#4C241D"/>
</g>
<g id="Group_18">
<path id="Vector_34" d="M136.06 122.36C131.63 119.741 130.157 114.005 132.776 109.575C135.395 105.146 141.13 103.672 145.56 106.291C149.99 108.91 151.463 114.646 148.844 119.076C146.225 123.505 140.49 124.979 136.06 122.36ZM142.846 110.882C140.947 109.76 138.49 110.391 137.367 112.29C136.244 114.189 136.875 116.646 138.774 117.769C140.673 118.892 143.131 118.26 144.253 116.361C145.376 114.462 144.745 112.005 142.846 110.882Z" fill="#4C241D"/>
<path id="Vector_35" d="M116.871 131.668C118.226 132.469 119.974 132.02 120.776 130.665C121.577 129.31 121.128 127.562 119.772 126.76C118.417 125.959 116.669 126.408 115.868 127.763C115.067 129.119 115.516 130.867 116.871 131.668Z" fill="#4C241D"/>
<path id="Vector_36" d="M26.7273 53.5889C28.0825 54.3902 29.8307 53.9411 30.632 52.5859C31.4332 51.2306 30.9841 49.4825 29.6289 48.6812C28.2737 47.8799 26.5255 48.329 25.7242 49.6842C24.923 51.0395 25.3721 52.7877 26.7273 53.5889Z" fill="#4C241D"/>
</g>
</g>
</g>
</g>
<defs>
<clipPath id="clip0">
<rect x="13.7875" width="200" height="200" transform="rotate(30.5931 13.7875 0)" fill="white"/>
</clipPath>
</defs>
</svg>
