<svg width="243" height="243" viewBox="0 0 243 243" fill="none" xmlns="http://www.w3.org/2000/svg">
<g id="carrots 1">
<g clip-path="url(#clip0)">
<g id="Group">
<path id="Vector" d="M124.829 188.897C157.673 180.607 177.577 147.262 169.288 114.419C160.998 81.5751 127.653 61.6705 94.8092 69.9604C61.9658 78.2503 42.0612 111.595 50.3511 144.439C58.6409 177.282 91.986 197.187 124.829 188.897Z" fill="#D6C1C1"/>
<g id="Group_2">
<path id="Vector_2" d="M185.975 164.183C184.546 164.544 183.098 163.678 182.737 162.25L181.432 157.079C181.072 155.651 181.936 154.202 183.365 153.841C184.794 153.48 186.243 154.346 186.603 155.774L187.908 160.945C188.269 162.373 187.405 163.822 185.975 164.183Z" fill="#4C241D"/>
<path id="Vector_3" d="M189.891 179.697C188.462 180.057 187.013 179.192 186.653 177.764L185.348 172.592C184.987 171.165 185.851 169.715 187.281 169.354C188.71 168.994 190.158 169.859 190.519 171.287L191.824 176.458C192.184 177.886 191.32 179.336 189.891 179.697Z" fill="#4C241D"/>
<path id="Vector_4" d="M182.109 170.66L176.938 171.965C175.509 172.325 174.06 171.46 173.7 170.032C173.34 168.604 174.204 167.154 175.633 166.794L180.804 165.488C182.233 165.128 183.682 165.993 184.042 167.421C184.403 168.849 183.539 170.299 182.109 170.66Z" fill="#4C241D"/>
<path id="Vector_5" d="M197.623 166.744L192.452 168.049C191.023 168.41 189.574 167.544 189.213 166.116C188.853 164.688 189.717 163.239 191.146 162.878L196.318 161.573C197.747 161.212 199.195 162.078 199.556 163.506C199.916 164.934 199.052 166.383 197.623 166.744Z" fill="#4C241D"/>
<path id="Vector_6" d="M88.0997 70.6246C86.6718 70.985 85.222 70.1195 84.8615 68.6916L83.5563 63.5205C83.1959 62.0926 84.0614 60.6427 85.4893 60.2823C86.9172 59.9219 88.3671 60.7874 88.7275 62.2153L90.0327 67.3864C90.3931 68.8143 89.5276 70.2642 88.0997 70.6246Z" fill="#4C241D"/>
<path id="Vector_7" d="M92.0154 86.138C90.5875 86.4985 89.1376 85.633 88.7772 84.2051L87.472 79.0339C87.1116 77.6061 87.9771 76.1562 89.405 75.7957C90.8328 75.4353 92.2827 76.3008 92.6432 77.7287L93.9484 82.8999C94.3088 84.3277 93.4433 85.7776 92.0154 86.138Z" fill="#4C241D"/>
<path id="Vector_8" d="M84.2338 77.101L79.0627 78.4062C77.6348 78.7666 76.1849 77.9011 75.8245 76.4732C75.4641 75.0454 76.3296 73.5955 77.7574 73.2351L82.9286 71.9298C84.3565 71.5694 85.8064 72.4349 86.1668 73.8628C86.5272 75.2907 85.6617 76.7406 84.2338 77.101Z" fill="#4C241D"/>
<path id="Vector_9" d="M99.7473 73.1853L94.5761 74.4905C93.1482 74.8509 91.6983 73.9854 91.3379 72.5576C90.9775 71.1297 91.843 69.6798 93.2709 69.3194L98.4421 68.0141C99.8712 67.6534 101.32 68.5192 101.68 69.9471C102.041 71.375 101.176 72.8246 99.7473 73.1853Z" fill="#4C241D"/>
<path id="Vector_10" d="M63.6363 120.804C58.6468 122.064 53.562 119.028 52.3026 114.039C51.0432 109.049 54.0785 103.964 59.068 102.705C64.0575 101.446 69.1423 104.481 70.4016 109.47C71.661 114.46 68.6251 119.545 63.6363 120.804ZM60.3732 107.876C58.2343 108.416 56.9339 110.595 57.4738 112.734C58.0136 114.872 60.1921 116.173 62.331 115.633C64.47 115.093 65.7704 112.915 65.2305 110.776C64.6906 108.637 62.5115 107.337 60.3732 107.876Z" fill="#4C241D"/>
<path id="Vector_11" d="M34.4978 73.7111C36.0243 73.3258 36.9494 71.776 36.5641 70.2495C36.1788 68.723 34.629 67.7979 33.1025 68.1832C31.576 68.5685 30.6509 70.1183 31.0362 71.6448C31.4215 73.1713 32.9713 74.0964 34.4978 73.7111Z" fill="#4C241D"/>
<path id="Vector_12" d="M195.052 143.198C196.579 142.813 197.504 141.263 197.119 139.737C196.733 138.21 195.184 137.285 193.657 137.67C192.131 138.056 191.205 139.605 191.591 141.132C191.976 142.658 193.526 143.584 195.052 143.198Z" fill="#4C241D"/>
</g>
<g id="Group_3">
<path id="Vector_13" d="M176.414 53.9819C176.351 53.9533 176.284 53.9434 176.219 53.9164C176.609 53.3764 176.951 52.7891 177.236 52.1581C179.503 47.122 177.259 41.2019 172.223 38.9341C167.187 36.667 161.267 38.9107 158.999 43.9469C158.693 44.6249 158.484 45.3192 158.338 46.0175C157.914 45.7142 157.456 45.4454 156.962 45.2229C152.933 43.4089 148.197 45.204 146.383 49.2331C144.569 53.2615 146.364 57.9983 150.393 59.812C150.896 60.0386 151.513 60.3166 152.217 60.6333L145.887 95.802L168.022 67.7498C168.725 68.0666 169.343 68.3446 169.846 68.5711C173.874 70.3851 178.611 68.5899 180.425 64.5609C182.239 60.5324 180.443 55.7957 176.414 53.9819Z" fill="#77A052"/>
<path id="Vector_14" d="M146.538 98.3873C145.97 98.5307 145.354 98.4873 144.791 98.2334C143.675 97.7305 143.043 96.5341 143.261 95.3297L149.222 62.211C143.914 59.7692 141.549 53.4758 143.954 48.1377C145.121 45.5396 147.233 43.5523 149.898 42.5428C152.144 41.6953 154.561 41.6208 156.82 42.3241C158.245 39.5001 160.644 37.3394 163.627 36.2082C166.799 35.0144 170.232 35.1145 173.317 36.5032C179.583 39.3248 182.444 46.6479 179.8 52.9508C183.503 55.9199 184.894 61.1315 182.856 65.6558C181.688 68.2539 179.576 70.2412 176.912 71.2507C174.284 72.2507 171.405 72.1744 168.827 71.0368L147.978 97.4557C147.604 97.9291 147.094 98.247 146.538 98.3873ZM152.383 47.3439C152.181 47.3948 151.985 47.4569 151.788 47.5306C150.457 48.0356 149.4 49.0292 148.814 50.3281C147.608 53.0094 148.807 56.1742 151.486 57.3819L153.311 58.2024C154.426 58.7054 155.058 59.9017 154.841 61.1062L150.4 85.7767L165.929 66.0979C166.686 65.1388 168 64.8158 169.116 65.3187L170.94 66.1392C172.241 66.7255 173.689 66.7698 175.022 66.2628C176.353 65.7577 177.41 64.7641 177.996 63.4652C179.184 60.8207 178.033 57.707 175.428 56.4627C175.352 56.438 175.276 56.4112 175.227 56.3911C174.465 56.0862 173.887 55.4469 173.659 54.6582C173.43 53.8695 173.575 53.0208 174.058 52.3552C174.351 51.9512 174.601 51.5161 174.804 51.064C176.465 47.3747 174.816 43.0245 171.129 41.3652C169.341 40.561 167.346 40.5006 165.517 41.1939C163.686 41.8885 162.237 43.2533 161.433 45.0397C161.223 45.4983 161.066 45.9931 160.949 46.5611C160.764 47.4446 160.145 48.1756 159.304 48.502C158.475 48.8337 157.517 48.7098 156.782 48.1822C156.503 47.9804 156.197 47.8018 155.87 47.6547C154.758 47.1563 153.542 47.0514 152.383 47.3439Z" fill="#4C241D"/>
</g>
<g id="Group_4">
<path id="Vector_15" d="M103.84 191.649C102.71 173.948 110.364 114.856 120.893 80.3398C123.408 72.0971 130.948 66.4082 139.565 66.3228C151.108 66.2084 161.437 69.3501 170.616 75.5756C178.31 80.7939 180.815 90.9849 177.013 99.4687C168.762 117.879 142.501 172.62 113.061 195.826C109.464 198.66 104.132 196.219 103.84 191.649Z" fill="#F78259"/>
<path id="Vector_16" d="M111.612 199.447C109.831 199.897 107.915 199.749 106.162 198.967C103.288 197.685 101.379 194.946 101.178 191.821L101.178 191.819C100.065 174.375 107.628 114.689 118.342 79.5606C121.213 70.1428 129.735 63.75 139.539 63.6546C151.477 63.5367 162.436 66.8041 172.112 73.3676C180.784 79.2482 183.869 90.6836 179.448 100.556C171.911 117.367 144.973 174.065 114.712 197.92C113.778 198.654 112.722 199.167 111.612 199.447ZM106.502 191.48C106.576 192.639 107.261 193.617 108.336 194.097C108.836 194.32 110.14 194.732 111.41 193.732C140.716 170.631 167.169 114.907 174.581 98.3767C177.942 90.8697 175.646 82.2091 169.117 77.783C160.357 71.8414 150.425 68.8822 139.59 68.9903C132.106 69.0586 125.632 73.9381 123.444 81.1164C112.879 115.752 105.411 174.4 106.502 191.48Z" fill="#4C241D"/>
</g>
<g id="Group_5">
<path id="Vector_17" d="M92.2518 190.59C107.246 186.805 116.332 171.583 112.548 156.589C108.763 141.595 93.5406 132.508 78.5469 136.293C63.5531 140.077 54.4663 155.3 58.2508 170.294C62.0353 185.287 77.258 194.374 92.2518 190.59Z" fill="#F78259"/>
<path id="Vector_18" d="M92.9044 193.175C76.5086 197.314 59.8036 187.342 55.6652 170.946C51.5268 154.551 61.4985 137.846 77.8943 133.707C94.2901 129.569 110.995 139.54 115.133 155.936C119.272 172.332 109.3 189.037 92.9044 193.175ZM79.1995 138.878C65.6556 142.297 57.4178 156.097 60.8364 169.641C64.2549 183.185 78.0553 191.423 91.5992 188.004C105.143 184.586 113.381 170.785 109.962 157.241C106.544 143.698 92.7434 135.46 79.1995 138.878Z" fill="#4C241D"/>
</g>
<g id="Group_6">
<path id="Vector_19" d="M89.7916 180.843C99.4022 178.417 105.227 168.66 102.801 159.049C100.375 149.438 90.6177 143.614 81.0071 146.04C71.3965 148.465 65.572 158.223 67.9978 167.834C70.4235 177.444 80.181 183.269 89.7916 180.843Z" fill="#F96E43"/>
<path id="Vector_20" d="M90.4444 183.429C79.4227 186.211 68.1935 179.508 65.4115 168.486C62.6296 157.465 69.3326 146.235 80.3543 143.454C91.376 140.672 102.605 147.375 105.387 158.396C108.169 169.418 101.465 180.647 90.4444 183.429ZM81.6595 148.625C73.4898 150.687 68.5206 159.011 70.5827 167.181C72.6448 175.351 80.9694 180.32 89.1391 178.258C97.3089 176.196 102.278 167.871 100.216 159.701C98.1539 151.532 89.8287 146.563 81.6595 148.625Z" fill="#4C241D"/>
</g>
<path id="Vector_21" d="M154.92 143.238C154.271 143.401 153.558 143.322 152.933 142.96L141.236 136.192C139.962 135.454 139.526 133.823 140.263 132.549C141.002 131.275 142.629 130.839 143.906 131.576L155.603 138.344C156.877 139.082 157.313 140.713 156.576 141.987C156.2 142.637 155.594 143.067 154.92 143.238Z" fill="#4C241D"/>
<path id="Vector_22" d="M131.049 177.407C130.4 177.571 129.687 177.491 129.061 177.13L123.211 173.746C121.936 173.009 121.5 171.378 122.238 170.103C122.977 168.829 124.605 168.392 125.881 169.13L131.731 172.513C133.005 173.251 133.441 174.881 132.704 176.156C132.328 176.805 131.723 177.237 131.049 177.407Z" fill="#4C241D"/>
<path id="Vector_23" d="M132.804 106.096C132.352 106.21 131.863 106.207 131.383 106.063L116.497 101.569C115.087 101.143 114.29 99.6553 114.715 98.2455C115.142 96.8364 116.627 96.0387 118.039 96.4639L132.925 100.958C134.335 101.383 135.132 102.872 134.707 104.281C134.426 105.212 133.683 105.874 132.804 106.096Z" fill="#4C241D"/>
</g>
</g>
</g>
<defs>
<clipPath id="clip0">
<rect y="48.946" width="200" height="200" transform="rotate(-14.1659 0 48.946)" fill="white"/>
</clipPath>
</defs>
</svg>
