<svg width="800" height="820" viewBox="0 0 800 820" fill="none" xmlns="http://www.w3.org/2000/svg">
<g id="girl_chef">
<path id="Vector" d="M516.657 183.497H541.534C549.389 183.497 556.921 187.538 562.475 194.733C568.029 201.927 571.149 211.685 571.149 221.859V292.448H487.042V221.859C487.042 216.821 487.808 211.833 489.296 207.179C490.784 202.524 492.966 198.295 495.716 194.733C498.466 191.17 501.731 188.345 505.324 186.417C508.917 184.489 512.768 183.497 516.657 183.497V183.497Z" fill="#673E38"/>
<path id="Vector_2" d="M181.623 286.709L151.3 306.369L467.102 782.329L497.426 762.669L181.623 286.709Z" fill="#D6C1C1"/>
<path id="Vector_3" d="M109.431 107.592L179.59 213.332C180.949 215.379 181.429 217.877 180.925 220.274C180.421 222.672 178.974 224.773 176.902 226.116C174.831 227.459 172.304 227.934 169.879 227.436C167.453 226.937 165.328 225.507 163.969 223.459L83.3131 101.899C72.3653 100.996 61.3612 102.782 51.2808 107.1L139.159 239.544C140.517 241.592 140.996 244.089 140.492 246.486C139.987 248.883 138.541 250.984 136.469 252.327C134.398 253.669 131.873 254.144 129.447 253.646C127.022 253.148 124.897 251.719 123.538 249.672L35.6596 117.227C27.6371 124.646 21.5951 133.911 18.0717 144.197L98.7276 265.757C100.085 267.805 100.565 270.302 100.06 272.699C99.556 275.096 98.1092 277.197 96.0381 278.539C93.967 279.882 91.4413 280.357 89.0162 279.859C86.5911 279.361 84.4654 277.932 83.1064 275.885L12.9477 170.145C11.1457 199.628 20.8702 234.573 42.1821 266.693C81.7911 326.39 146.401 353.712 186.493 327.72C226.585 301.727 226.976 232.262 187.367 172.566C166.055 140.446 137.506 117.706 109.431 107.592Z" fill="#D6C1C1"/>
<path id="Vector_4" d="M317.583 221.597H281.319V790.796H317.583V221.597Z" fill="#D6C1C1"/>
<path id="Vector_5" d="M298.901 258.529C346.847 258.529 385.714 200.656 385.714 129.265C385.714 57.8738 346.847 0 298.901 0C250.955 0 212.088 57.8738 212.088 129.265C212.088 200.656 250.955 258.529 298.901 258.529Z" fill="#D6C1C1"/>
<path id="Vector_6" d="M400 820C620.914 820 800 809.843 800 797.313C800 784.784 620.914 774.626 400 774.626C179.086 774.626 0 784.784 0 797.313C0 809.843 179.086 820 400 820Z" fill="#E6E6E6"/>
<path id="Vector_7" d="M636.558 796.98C486.654 770.271 333.126 770.271 183.222 796.98C180.841 797.406 178.394 797.311 176.054 796.701C173.715 796.09 171.539 794.98 169.68 793.448C167.822 791.915 166.327 789.998 165.3 787.832C164.273 785.666 163.739 783.304 163.736 780.912V577.889H656.044V780.912C656.042 783.304 655.508 785.666 654.481 787.832C653.454 789.998 651.958 791.915 650.1 793.448C648.242 794.98 646.066 796.09 643.726 796.701C641.386 797.311 638.939 797.406 636.558 796.98V796.98Z" fill="#DD2C00"/>
<path id="Vector_8" d="M610.989 427.986C599.622 427.975 588.332 429.843 577.588 433.511C561.916 399.91 536.873 371.425 505.399 351.398C473.925 331.372 437.325 320.636 399.895 320.449C362.465 320.262 325.757 330.632 294.08 350.343C262.403 370.054 237.07 398.287 221.056 431.73C205.286 427.357 188.685 426.795 172.65 430.09C156.614 433.385 141.615 440.441 128.915 450.664C116.215 460.887 106.187 473.977 99.6746 488.831C93.1623 503.686 90.3569 519.871 91.4948 536.021C92.6326 552.172 97.6803 567.815 106.213 581.634C114.745 595.453 126.512 607.043 140.523 615.427C154.534 623.811 170.378 628.744 186.72 629.81C203.063 630.876 219.425 628.045 234.429 621.553C252.463 648.717 277.094 670.981 306.073 686.313C335.052 701.645 367.455 709.555 400.323 709.321C433.191 709.088 465.475 700.717 494.228 684.975C522.981 669.233 547.285 646.62 564.922 619.203C578.7 626.079 593.875 629.78 609.308 630.03C624.74 630.28 640.03 627.072 654.029 620.646C668.028 614.22 680.372 604.743 690.137 592.927C699.901 581.111 706.831 567.262 710.406 552.42C713.982 537.578 714.111 522.128 710.783 507.23C707.454 492.331 700.756 478.372 691.19 466.399C681.623 454.425 669.438 444.749 655.548 438.096C641.658 431.443 626.424 427.987 610.989 427.986V427.986Z" fill="#DD2C00"/>
<path id="Vector_9" d="M203.297 514.886H201.099C201.024 485.962 207.5 457.388 220.052 431.26L222.038 432.191C209.626 458.028 203.222 486.284 203.297 514.886V514.886Z" fill="#3F3D56"/>
<path id="Vector_10" d="M596.703 514.886H594.505C594.573 486.943 588.462 459.323 576.6 433.959L578.596 433.049C590.592 458.698 596.772 486.629 596.703 514.886V514.886Z" fill="#3F3D56"/>
<path id="Vector_11" d="M164.001 672.362L163.471 670.253C164.092 670.101 226.552 654.937 318.087 647.413C402.571 640.469 529.83 638.794 656.312 670.254L655.776 672.361C529.604 640.979 402.623 642.647 318.315 649.575C226.944 657.082 164.62 672.21 164.001 672.362Z" fill="#3F3D56"/>
<path id="Vector_12" d="M164.001 701.691L163.471 699.582C164.092 699.43 226.552 684.266 318.087 676.742C402.571 669.798 529.83 668.123 656.312 699.583L655.776 701.69C529.604 670.308 402.623 671.978 318.315 678.904C226.944 686.411 164.62 701.539 164.001 701.691Z" fill="#3F3D56"/>
<path id="Vector_13" d="M164.001 731.02L163.471 728.911C164.092 728.759 226.552 713.595 318.087 706.071C402.571 699.127 529.83 697.452 656.312 728.912L655.776 731.019C529.604 699.637 402.623 701.307 318.315 708.233C226.944 715.74 164.62 730.868 164.001 731.02Z" fill="#3F3D56"/>
<path id="Vector_14" d="M568.425 571.541L541.799 562.592L567.36 433.622L549.787 432.043C532.651 445.039 509.831 450.134 480.557 446.256L527.42 516.268L503.525 532.942L427.296 442.559C423.86 438.485 421.978 433.349 421.978 428.045C421.978 423.128 423.596 418.344 426.587 414.415C429.579 410.487 433.781 407.626 438.561 406.265L519.965 383.087L615.289 393.615C629.7 415.334 630.264 430.439 608.325 434.796L568.425 571.541Z" fill="#2F2E41"/>
<path id="Vector_15" d="M541.173 621.713C538.421 621.541 535.748 620.729 533.372 619.344C530.997 617.959 528.985 616.04 527.501 613.743C526.016 611.445 525.101 608.834 524.829 606.121C524.557 603.408 524.937 600.67 525.936 598.129L539.173 564.482C545.897 551.891 555.126 553.467 566.022 564.482L571.348 579.923C571.786 581.194 571.96 582.54 571.859 583.88C571.758 585.219 571.384 586.525 570.76 587.718L557.857 612.376C556.293 615.365 553.883 617.84 550.92 619.498C547.957 621.156 544.571 621.925 541.173 621.713V621.713Z" fill="#2F2E41"/>
<path id="Vector_16" d="M506.761 577.651C504.008 577.479 501.336 576.667 498.96 575.283C496.584 573.898 494.573 571.979 493.088 569.681C491.604 567.383 490.689 564.772 490.417 562.059C490.145 559.346 490.524 556.608 491.524 554.067L504.761 520.42C511.485 507.829 520.713 509.405 531.61 520.42L536.935 535.861C537.374 537.133 537.548 538.479 537.447 539.818C537.346 541.158 536.972 542.463 536.348 543.656L523.445 568.315C521.881 571.304 519.47 573.778 516.508 575.436C513.545 577.094 510.158 577.864 506.761 577.651Z" fill="#2F2E41"/>
<path id="Vector_17" d="M523.693 259.907C540.163 259.907 553.515 246.709 553.515 230.429C553.515 214.148 540.163 200.95 523.693 200.95C507.222 200.95 493.871 214.148 493.871 230.429C493.871 246.709 507.222 259.907 523.693 259.907Z" fill="#FFB9B9"/>
<path id="Vector_18" d="M570.023 272.015L529.017 293.071L520.497 255.17L548.721 237.798L570.023 272.015Z" fill="#FFB9B9"/>
<path id="Vector_19" d="M619.548 398.879C578.632 386.663 541.507 380.333 514.639 389.93C523.9 364.177 506.807 324.851 488.012 284.649C496.122 274.17 509.052 270.111 523.692 268.33C539.711 279.827 550.88 272.448 559.372 254.643C577.892 253.908 595.74 260.392 613.158 271.488C599.542 314.598 601.993 357.048 619.548 398.879Z" fill="#3F3D56"/>
<path id="Vector_20" d="M514.106 396.247C507.645 400.012 501.682 406.353 496 414.145C486.398 408.335 477.947 401.719 471.29 393.851C466.63 388.272 463.453 381.631 462.047 374.532C460.64 367.432 461.048 360.097 463.235 353.193L481.433 294.729C482.945 289.873 485.881 285.57 489.87 282.367L492.272 280.437L516.236 325.182L492.272 369.4C495.311 377.455 504.266 386.757 514.106 396.247Z" fill="#3F3D56"/>
<path id="Vector_21" d="M522.355 440.822C520.182 441.801 517.809 442.267 515.423 442.183C513.037 442.099 510.703 441.467 508.606 440.338C506.51 439.208 504.708 437.612 503.343 435.675C501.978 433.739 501.088 431.514 500.743 429.179L496.782 402.376L510.628 395.006L528.201 417.746C529.604 419.562 530.576 421.668 531.043 423.906C531.51 426.145 531.461 428.458 530.9 430.676C530.338 432.893 529.278 434.956 527.799 436.713C526.32 438.47 524.459 439.874 522.355 440.822V440.822Z" fill="#FFB9B9"/>
<path id="Vector_22" d="M553.78 229.139L548.688 229.288L534.564 209.51C516.466 211.36 501.636 219.132 489.086 231.038L487.813 222.653C486.6 214.656 488.533 206.504 493.214 199.872C497.896 193.241 504.97 188.636 512.981 187.003H512.981C517.19 186.145 521.53 186.134 525.742 186.972C529.955 187.809 533.953 189.476 537.499 191.875C541.045 194.273 544.066 197.354 546.381 200.932C548.696 204.51 550.258 208.513 550.973 212.701L553.78 229.139Z" fill="#673E38"/>
<path id="Vector_23" d="M496.515 414.156C495.524 412.008 495.053 409.662 495.138 407.303C495.223 404.944 495.862 402.638 497.005 400.565C498.148 398.493 499.763 396.712 501.722 395.362C503.681 394.013 505.931 393.134 508.294 392.792L535.409 388.877L542.864 402.564L519.86 419.934C518.023 421.322 515.893 422.282 513.628 422.744C511.363 423.206 509.023 423.157 506.78 422.602C504.537 422.047 502.449 420.999 500.672 419.537C498.895 418.075 497.474 416.235 496.515 414.156V414.156Z" fill="#FFB9B9"/>
<path id="Vector_24" d="M624.714 389.775C598.917 391.755 570.751 399.707 541.266 410.987C540.9 402.334 537.725 394.028 532.213 387.298C558.993 380.326 583.294 372.143 598.247 359.399L589.194 292.018L608.898 269.909L612.296 271.662C615.119 273.112 617.602 275.132 619.584 277.592C621.566 280.051 623.002 282.895 623.801 285.939C632.12 317.928 635.816 348.578 633.275 377.421C633.603 380.156 632.916 382.915 631.342 385.187C629.767 387.459 627.413 389.089 624.714 389.775V389.775Z" fill="#3F3D56"/>
<path id="Vector_25" d="M105.369 790.917C81.3777 805.75 57.3861 805.744 33.3943 790.898C32.6349 790.436 32.018 789.777 31.6109 788.992C31.2039 788.208 31.0221 787.328 31.0853 786.449L38.5714 690.248H99.1214L107.674 786.415C107.748 787.303 107.572 788.193 107.165 788.988C106.758 789.782 106.137 790.45 105.369 790.917V790.917Z" fill="#3F3D56"/>
<path id="Vector_26" d="M68.5671 702.219C85.4417 702.219 99.1214 697.347 99.1214 691.337C99.1214 685.326 85.4417 680.454 68.5671 680.454C51.6924 680.454 38.0128 685.326 38.0128 691.337C38.0128 697.347 51.6924 702.219 68.5671 702.219Z" fill="#3F3D56"/>
<path id="Vector_27" d="M92.5158 687.663C76.5945 698.734 61.1818 698.734 46.2776 687.663V670.251H92.5158V687.663Z" fill="#DD2C00"/>
<path id="Vector_28" d="M69.3967 678.957C82.165 678.957 92.5158 675.059 92.5158 670.251C92.5158 665.443 82.165 661.545 69.3967 661.545C56.6284 661.545 46.2776 665.443 46.2776 670.251C46.2776 675.059 56.6284 678.957 69.3967 678.957Z" fill="#DD2C00"/>
<path id="Vector_29" d="M70.4976 670.251C71.7136 670.251 72.6994 669.764 72.6994 669.163C72.6994 668.562 71.7136 668.075 70.4976 668.075C69.2816 668.075 68.2958 668.562 68.2958 669.163C68.2958 669.764 69.2816 670.251 70.4976 670.251Z" fill="#E6E6E6"/>
<path id="Vector_30" d="M80.8944 670.251C82.1105 670.251 83.0963 669.764 83.0963 669.163C83.0963 668.562 82.1105 668.075 80.8944 668.075C79.6784 668.075 78.6926 668.562 78.6926 669.163C78.6926 669.764 79.6784 670.251 80.8944 670.251Z" fill="#E6E6E6"/>
<path id="Vector_31" d="M75.6962 672.821C76.9122 672.821 77.898 672.333 77.898 671.732C77.898 671.131 76.9122 670.644 75.6962 670.644C74.4802 670.644 73.4944 671.131 73.4944 671.732C73.4944 672.333 74.4802 672.821 75.6962 672.821Z" fill="#E6E6E6"/>
<path id="Vector_32" d="M54.9022 672.821C56.1183 672.821 57.1041 672.333 57.1041 671.732C57.1041 671.131 56.1183 670.644 54.9022 670.644C53.6862 670.644 52.7004 671.131 52.7004 671.732C52.7004 672.333 53.6862 672.821 54.9022 672.821Z" fill="#E6E6E6"/>
<path id="Vector_33" d="M60.1009 670.251C61.3169 670.251 62.3027 669.764 62.3027 669.163C62.3027 668.562 61.3169 668.075 60.1009 668.075C58.8848 668.075 57.899 668.562 57.899 669.163C57.899 669.764 58.8848 670.251 60.1009 670.251Z" fill="#E6E6E6"/>
<path id="Vector_34" d="M65.2992 674.105C66.5153 674.105 67.501 673.618 67.501 673.017C67.501 672.416 66.5153 671.929 65.2992 671.929C64.0832 671.929 63.0974 672.416 63.0974 673.017C63.0974 673.618 64.0832 674.105 65.2992 674.105Z" fill="#E6E6E6"/>
<path id="Vector_35" d="M770.204 790.917C746.212 805.75 722.221 805.744 698.229 790.898C697.47 790.436 696.853 789.777 696.446 788.992C696.039 788.208 695.857 787.328 695.92 786.449L703.406 690.248H763.956L772.509 786.415C772.583 787.303 772.406 788.193 771.999 788.988C771.593 789.782 770.971 790.45 770.204 790.917V790.917Z" fill="#3F3D56"/>
<path id="Vector_36" d="M733.402 702.219C750.277 702.219 763.957 697.347 763.957 691.337C763.957 685.326 750.277 680.454 733.402 680.454C716.528 680.454 702.848 685.326 702.848 691.337C702.848 697.347 716.528 702.219 733.402 702.219Z" fill="#3F3D56"/>
<path id="Vector_37" d="M757.351 687.663C741.43 698.734 726.017 698.734 711.113 687.663V670.251H757.351V687.663Z" fill="#DD2C00"/>
<path id="Vector_38" d="M734.232 678.957C747 678.957 757.351 675.059 757.351 670.251C757.351 665.443 747 661.545 734.232 661.545C721.464 661.545 711.113 665.443 711.113 670.251C711.113 675.059 721.464 678.957 734.232 678.957Z" fill="#DD2C00"/>
<path id="Vector_39" d="M735.333 670.251C736.549 670.251 737.535 669.764 737.535 669.163C737.535 668.562 736.549 668.075 735.333 668.075C734.117 668.075 733.131 668.562 733.131 669.163C733.131 669.764 734.117 670.251 735.333 670.251Z" fill="#E6E6E6"/>
<path id="Vector_40" d="M745.729 670.251C746.945 670.251 747.931 669.764 747.931 669.163C747.931 668.562 746.945 668.075 745.729 668.075C744.513 668.075 743.527 668.562 743.527 669.163C743.527 669.764 744.513 670.251 745.729 670.251Z" fill="#E6E6E6"/>
<path id="Vector_41" d="M740.531 672.821C741.747 672.821 742.733 672.333 742.733 671.732C742.733 671.131 741.747 670.644 740.531 670.644C739.315 670.644 738.33 671.131 738.33 671.732C738.33 672.333 739.315 672.821 740.531 672.821Z" fill="#E6E6E6"/>
<path id="Vector_42" d="M719.738 672.821C720.954 672.821 721.94 672.333 721.94 671.732C721.94 671.131 720.954 670.644 719.738 670.644C718.522 670.644 717.536 671.131 717.536 671.732C717.536 672.333 718.522 672.821 719.738 672.821Z" fill="#E6E6E6"/>
<path id="Vector_43" d="M724.936 670.251C726.152 670.251 727.138 669.764 727.138 669.163C727.138 668.562 726.152 668.075 724.936 668.075C723.72 668.075 722.734 668.562 722.734 669.163C722.734 669.764 723.72 670.251 724.936 670.251Z" fill="#E6E6E6"/>
<path id="Vector_44" d="M730.134 674.105C731.35 674.105 732.336 673.618 732.336 673.017C732.336 672.416 731.35 671.929 730.134 671.929C728.918 671.929 727.933 672.416 727.933 673.017C727.933 673.618 728.918 674.105 730.134 674.105Z" fill="#E6E6E6"/>
</g>
</svg>
