<svg width="500" height="750" viewBox="0 0 500 750" fill="none" xmlns="http://www.w3.org/2000/svg">
<g id="girl-waving">
<path id="Vector" d="M107.646 97.4751H156.33C171.701 97.4751 186.442 104.955 197.311 118.27C208.18 131.585 214.286 149.644 214.286 168.474V299.114H49.6895V168.474C49.6894 159.15 51.1885 149.918 54.1011 141.304C57.0136 132.69 61.2826 124.863 66.6644 118.27C72.0461 111.677 78.4351 106.448 85.4667 102.88C92.4982 99.3115 100.035 97.4751 107.646 97.4751V97.4751Z" fill="#673E38"/>
<path id="Vector_2" d="M331.424 239.221L425.039 83.239C425.039 83.239 423.89 6.48625 473.839 17.7498C523.788 29.0133 457.25 103.377 457.25 103.377L376.874 256.592L331.424 239.221Z" fill="#FFB9B9"/>
<path id="Vector_3" d="M195.594 209.025C201.092 173.849 178.084 140.707 144.204 134.999C110.323 129.29 78.4011 153.178 72.9031 188.354C67.4052 223.53 90.4137 256.672 124.294 262.38C158.174 268.089 190.096 244.2 195.594 209.025Z" fill="#FFB9B9"/>
<path id="Vector_4" d="M107.395 246.001C129.927 280.031 102.195 299.732 102.195 299.732L90.0621 392.866C90.0621 392.866 220.057 405.404 242.59 387.493C265.122 369.583 216.591 310.479 199.258 305.105C181.925 299.732 178.459 226.3 178.459 226.3L107.395 246.001Z" fill="#FFB9B9"/>
<path id="Vector_5" d="M111.373 294.432L42.6906 283.71L31.0559 371.515C31.0559 371.515 42.9325 615.876 39.2782 651.948C35.6238 688.02 139.984 685.552 139.984 685.552C139.984 685.552 138.53 685.552 195.249 685.552C267.965 685.552 279.747 684.152 279.747 684.152C286.26 684.572 291.381 677.151 294.143 663.15C300.107 654.749 274.071 367.271 274.071 367.271L239.354 273.909L197.329 293.006L161.946 297.711L111.373 294.432Z" fill="#3F3D56"/>
<path id="Vector_6" d="M235.901 355.499L341.444 296.794L433.514 201.379L365.967 153.033L303.755 236.218L229.36 278.11L225.584 283.714L235.901 355.499Z" fill="#3F3D56"/>
<path id="Vector_7" d="M52.1308 509.154L45.3121 675.207C45.3121 675.207 82.5089 737.091 34.2937 748.912C-13.9216 760.732 8.14554 672.368 8.14554 672.368L4.89836 514.122L52.1308 509.154Z" fill="#FFB9B9"/>
<path id="Vector_8" d="M55.4197 477.787L47.0545 629.577L6.93134 625.348C6.93134 625.348 -3.6528 612.261 1.33693 553.454C-4.25747 515.393 11.9211 365.916 16.9402 315.393C32.1063 275.747 46.0924 282.795 46.0924 282.795L62.1118 291.936L55.4197 477.787Z" fill="#3F3D56"/>
<path id="Vector_9" d="M204.969 185.512L194.001 185.699L163.577 160.91C124.592 163.228 92.6477 172.97 65.6151 187.893L62.8741 177.382C60.2603 167.359 64.4236 157.141 74.5075 148.829C84.5914 140.518 99.8293 134.745 117.087 132.698H117.087C126.152 131.623 135.5 131.61 144.574 132.659C153.648 133.708 162.261 135.799 169.899 138.805C177.537 141.811 184.044 145.672 189.03 150.157C194.017 154.642 197.381 159.659 198.922 164.908L204.969 185.512Z" fill="#673E38"/>
</g>
</svg>
