<svg width="161" height="268" viewBox="0 0 161 268" fill="none" xmlns="http://www.w3.org/2000/svg">
<g id="girl-waving">
<path id="Vector" d="M34.6618 35H50.3382C55.2876 35 60.0343 37.671 63.5341 42.4254C67.0339 47.1798 69 53.6282 69 60.3519V107H16V60.352C16 57.0227 16.4827 53.726 17.4205 50.6502C18.3584 47.5743 19.733 44.7796 21.4659 42.4254C23.1988 40.0713 25.2561 38.2039 27.5203 36.9298C29.7844 35.6557 32.2111 35 34.6618 35Z" fill="#673E38"/>
<path id="Vector_2" d="M106.718 85.614L136.863 29.9167C136.863 29.9167 136.493 2.51023 152.576 6.53215C168.66 10.5541 147.235 37.1075 147.235 37.1075L121.353 91.8167L106.718 85.614Z" fill="#FFB9B9"/>
<path id="Vector_3" d="M62.9814 74.8316C64.7517 62.2713 57.343 50.4369 46.4336 48.3987C35.5241 46.3604 25.2451 54.8903 23.4748 67.4506C21.7045 80.0108 29.1132 91.8453 40.0226 93.8835C50.9321 95.9217 61.2111 87.3919 62.9814 74.8316Z" fill="#FFB9B9"/>
<path id="Vector_4" d="M34.5811 88.0349C41.8366 100.186 32.9068 107.221 32.9068 107.221L29 140.477C29 140.477 70.8584 144.953 78.1139 138.558C85.3693 132.163 69.7422 111.058 64.1611 109.139C58.5799 107.221 57.4637 81 57.4637 81L34.5811 88.0349Z" fill="#FFB9B9"/>
<path id="Vector_5" d="M35.8621 105.328L13.7464 101.5L10 132.853C10 132.853 13.8243 220.108 12.6476 232.988C11.4709 245.869 45.0748 244.987 45.0748 244.987C45.0748 244.987 44.6066 244.987 62.8701 244.987C86.2848 244.987 90.0784 244.487 90.0784 244.487C92.1758 244.637 93.8248 241.987 94.7141 236.988C96.6346 233.988 88.2508 131.337 88.2508 131.337L77.0721 98L63.54 104.819L52.1465 106.499L35.8621 105.328Z" fill="#3F3D56"/>
<path id="Vector_6" d="M75.96 127.134L109.945 106.172L139.592 72.1013L117.842 54.8382L97.8091 84.5416L73.8538 99.5L72.638 101.501L75.96 127.134Z" fill="#3F3D56"/>
<path id="Vector_7" d="M16.7861 182L14.5905 241.293C14.5905 241.293 26.5679 263.391 11.0426 267.611C-4.48274 271.832 2.62286 240.28 2.62286 240.28L1.57727 183.774L16.7861 182Z" fill="#FFB9B9"/>
<path id="Vector_8" d="M17.8451 170.8L15.1516 225L2.23189 223.49C2.23189 223.49 -1.1762 218.817 0.430492 197.819C-1.37091 184.228 3.83859 130.853 5.45473 112.813C10.3382 98.6563 14.8417 101.173 14.8417 101.173L20 104.437L17.8451 170.8Z" fill="#3F3D56"/>
<path id="Vector_9" d="M66 67.1498L62.4682 67.2168L52.6717 58.365C40.1187 59.1927 29.8326 62.6715 21.1281 68L20.2455 64.247C19.4038 60.6679 20.7444 57.0193 23.9914 54.0515C27.2384 51.0836 32.145 49.0223 37.702 48.2915H37.702C40.6208 47.9076 43.631 47.9029 46.5528 48.2775C49.4745 48.6521 52.2479 49.3985 54.7074 50.472C57.1669 51.5455 59.2621 52.9242 60.8677 54.5256C62.4733 56.1271 63.5566 57.9185 64.0527 59.7929L66 67.1498Z" fill="#673E38"/>
</g>
</svg>
